<svg xmlns="http://www.w3.org/2000/svg" xmlns:xlink="http://www.w3.org/1999/xlink" x="0px" y="0px" viewBox="0 0 2250 1500" style="enable-background:new 0 0 2250 1500;" xml:space="preserve"><style type="text/css">	.st0{fill:none;stroke:#00FF41;stroke-width:0.9919;stroke-miterlimit:10;}	.st1{fill:#373849;}	.st2{fill:none;stroke:#FF00FF;stroke-miterlimit:10;}	.st3{fill:#00FF41;}	.st4{fill:none;}	.st5{fill:#FFFFFF;}	.st6{fill:none;stroke:#000000;stroke-width:25.3444;stroke-miterlimit:2;}	.st7{fill:none;stroke:#373849;stroke-miterlimit:2;}	.st8{fill:#A3A3A3;}	.st9{fill:none;stroke:#000000;stroke-miterlimit:2;}	.st10{fill:none;stroke:#000000;stroke-miterlimit:10;}	.st11{fill:none;stroke:#FF00FF;stroke-width:2.2532;stroke-miterlimit:10;}	.st12{fill:none;stroke:#FF00FF;stroke-width:1.6862;stroke-miterlimit:10;}	.st13{fill:none;stroke:#FF00FF;stroke-width:1.2584;stroke-miterlimit:10;}	.st14{fill:none;stroke:#FF00FF;stroke-width:0.9368;stroke-miterlimit:10;}	.st15{fill:none;stroke:#FF00FF;stroke-width:0.7026;stroke-miterlimit:10;}	.st16{fill:none;stroke:#FF00FF;stroke-width:0.5269;stroke-miterlimit:10;}	.st17{fill:none;stroke:#FF00FF;stroke-width:0.3934;stroke-miterlimit:10;}	.st18{fill:none;stroke:#FF00FF;stroke-width:0.2951;stroke-miterlimit:10;}	.st19{fill:none;stroke:#00FFFF;stroke-width:0.3093;stroke-miterlimit:10;}	.st20{fill:none;stroke:#FF00FF;stroke-width:0.3093;stroke-miterlimit:10;}	.st21{fill:none;stroke:#00FFFF;stroke-width:0.4169;stroke-miterlimit:10;}	.st22{fill:none;stroke:#FF00FF;stroke-width:0.4169;stroke-miterlimit:10;}	.st23{fill:none;stroke:#FF00FF;stroke-width:4.8108;stroke-miterlimit:10;}	.st24{fill:none;stroke:#FF00FF;stroke-width:3.6001;stroke-miterlimit:10;}	.st25{fill:none;stroke:#FF00FF;stroke-width:2.6866;stroke-miterlimit:10;}	.st26{fill:none;stroke:#FF00FF;stroke-width:2.0001;stroke-miterlimit:10;}	.st27{fill:none;stroke:#FF00FF;stroke-width:1.5;stroke-miterlimit:10;}	.st28{fill:none;stroke:#FF00FF;stroke-width:1.125;stroke-miterlimit:10;}	.st29{fill:none;stroke:#FF00FF;stroke-width:0.84;stroke-miterlimit:10;}	.st30{fill:none;stroke:#FF00FF;stroke-width:0.63;stroke-miterlimit:10;}	.st31{fill:none;stroke:#00FFFF;stroke-width:0.6604;stroke-miterlimit:10;}	.st32{fill:none;stroke:#FF00FF;stroke-width:0.6604;stroke-miterlimit:10;}	.st33{fill:none;stroke:#00FFFF;stroke-width:0.89;stroke-miterlimit:10;}	.st34{fill:none;stroke:#FF00FF;stroke-width:0.89;stroke-miterlimit:10;}	.st35{fill:none;stroke:#FF00FF;stroke-width:3.3764;stroke-miterlimit:10;}	.st36{fill:none;stroke:#FF00FF;stroke-width:2.5267;stroke-miterlimit:10;}	.st37{fill:none;stroke:#FF00FF;stroke-width:1.8856;stroke-miterlimit:10;}	.st38{fill:none;stroke:#FF00FF;stroke-width:1.4037;stroke-miterlimit:10;}	.st39{fill:none;stroke:#FF00FF;stroke-width:1.0528;stroke-miterlimit:10;}	.st40{fill:none;stroke:#FF00FF;stroke-width:0.7896;stroke-miterlimit:10;}	.st41{fill:none;stroke:#FF00FF;stroke-width:0.5896;stroke-miterlimit:10;}	.st42{fill:none;stroke:#FF00FF;stroke-width:0.4422;stroke-miterlimit:10;}	.st43{fill:none;stroke:#00FFFF;stroke-width:0.4635;stroke-miterlimit:10;}	.st44{fill:none;stroke:#FF00FF;stroke-width:0.4635;stroke-miterlimit:10;}	.st45{fill:none;stroke:#00FFFF;stroke-width:0.6247;stroke-miterlimit:10;}	.st46{fill:none;stroke:#FF00FF;stroke-width:0.6247;stroke-miterlimit:10;}	.st47{fill:none;stroke:#00FF41;stroke-miterlimit:10;}	.st48{fill:none;stroke:#00FFFF;stroke-miterlimit:10;}	.st49{fill:none;stroke:#CC00CC;stroke-miterlimit:10;}	.st50{fill:none;stroke:#330066;stroke-miterlimit:10;}	.st51{fill:#00FFFF;}	.st52{fill:#FFFF00;}	.st53{fill:#CC0066;}	.st54{fill:#330066;}	.st55{fill:#CC00CC;}	.st56{fill:#DCD0D6;}	.st57{fill:none;stroke:#373849;stroke-miterlimit:10;}	.st58{fill:#F2F2F2;}	.st59{fill:#FFED00;}	.st60{fill:#009EDE;}	.st61{fill:#E6007E;}	.st62{fill:none;stroke:#333333;stroke-width:2.485;stroke-miterlimit:10;}	.st63{fill:#333333;}	.st64{display:none;}	.st65{display:inline;}	.st66{fill:none;stroke:#FF0000;stroke-miterlimit:10;}</style><g id="Capa_1">	<g>		<g>			<g>				<path class="st5" d="M919.25,884.98v38.82H763.47V574.44h45.37v310.55H919.25z"></path>				<path class="st5" d="M978.47,923.8V574.44h156.78v38.82h-111.41v108.39h100.83v37.81h-100.83v125.53h119.48v38.82H978.47z"></path>				<path class="st5" d="M1276.41,892.55c18.15,0,32.18-5.04,42.1-15.12c9.91-10.08,14.87-23.69,14.87-40.83     c0-9.07-1.51-17.14-4.54-24.2s-6.98-13.44-11.85-19.16c-4.88-5.71-10.51-10.92-16.89-15.63c-6.39-4.7-12.94-9.41-19.66-14.12     c-7.74-5.37-15.8-11.09-24.2-17.14c-8.4-6.05-16.05-13.11-22.94-21.17c-6.89-8.07-12.53-17.47-16.89-28.23     c-4.37-10.75-6.55-23.35-6.55-37.81c0-14.11,2.43-26.88,7.31-38.31c4.87-11.42,11.6-21.17,20.17-29.24     c8.57-8.07,18.82-14.28,30.75-18.65c11.93-4.36,24.78-6.55,38.57-6.55c13.44,0,25.87,1.68,37.3,5.04     c11.42,3.36,21,7.4,28.74,12.1l-14.12,35.79c-7.06-4.7-14.71-8.32-22.94-10.84c-8.24-2.52-16.89-3.78-25.96-3.78     c-16.47,0-29.67,4.46-39.58,13.36c-9.92,8.91-14.87,21.93-14.87,39.07c0,9.41,1.59,17.64,4.79,24.7     c3.19,7.06,7.39,13.45,12.6,19.16c5.21,5.72,11.26,10.93,18.15,15.63c6.89,4.71,14.2,9.58,21.93,14.62     c7.73,5.04,15.63,10.59,23.69,16.64c8.07,6.05,15.38,13.03,21.93,20.92c6.55,7.9,11.93,17.14,16.13,27.73     c4.2,10.59,6.3,23.11,6.3,37.56c0,13.11-2.02,25.54-6.05,37.3c-4.03,11.77-10.33,22.1-18.91,31     c-8.57,8.91-19.33,15.97-32.26,21.17c-12.94,5.21-28.15,7.81-45.62,7.81c-16.13,0-30.25-1.85-42.35-5.54     c-12.1-3.69-22.86-8.57-32.27-14.62l14.12-36.3c8.74,5.38,17.72,9.66,26.97,12.85C1253.64,890.96,1264.31,892.55,1276.41,892.55     z"></path>				<path class="st5" d="M1563.39,574.44c8.06,25.17,16.03,50.61,23.92,76.32c7.89,25.71,15.61,52.69,23.17,80.92     c7.55,28.23,15.11,58.15,22.66,89.74s15.15,65.72,22.77,102.38h-45.37c-2.62-15.14-5.33-30.1-8.15-44.88     c-2.82-14.78-5.72-29.56-8.7-44.35h-110.22c-3.37,14.79-6.41,29.57-9.11,44.36c-2.69,14.79-5.36,29.75-7.99,44.88h-43.86     c7.42-36.62,15.01-70.72,22.77-102.31c7.75-31.59,15.42-61.49,23.02-89.71c7.59-28.22,15.34-55.19,23.27-80.9     c7.92-25.7,15.95-51.19,24.08-76.45H1563.39z M1538.71,625.86c-8.18,28-16.15,56.08-23.9,84.29     c-7.76,28.2-15.18,57.08-22.26,86.62h91.51c-6.7-29.56-13.91-58.46-21.62-86.68C1554.74,681.86,1546.82,653.78,1538.71,625.86z"></path>				<path class="st5" d="M1882.52,923.8c-8.07-19.83-17.23-41.25-27.48-64.28c-10.25-23.02-21.01-46.21-32.27-69.57     c-11.26-23.35-22.77-46.54-34.53-69.57c-11.77-23.02-23.36-44.44-34.79-64.28V923.8h-42.35V574.44h37.79     c12.77,20.84,25.12,42.18,37.05,64.03c11.93,21.85,23.27,43.44,34.04,64.78c10.75,21.35,20.92,42.35,30.5,63.02     c9.58,20.67,18.41,40.25,26.47,58.73V574.44h42.35V923.8H1882.52z"></path>				<path class="st5" d="M2200,748.87c0,32.6-3.45,60.24-10.33,82.93c-6.89,22.68-16.81,41.09-29.75,55.2     c-12.94,14.12-28.57,24.37-46.88,30.75c-18.32,6.38-38.74,9.58-61.25,9.58c-22.86,0-47.06-3.03-72.59-9.07V579.48     c12.77-2.69,25.21-4.87,37.3-6.55c12.1-1.68,23.69-2.52,34.79-2.52c22.85,0,43.43,3.2,61.76,9.58     c18.31,6.39,33.94,16.64,46.88,30.75c12.93,14.12,22.85,32.52,29.75,55.2C2196.55,688.62,2200,716.27,2200,748.87z      M2151.6,748.87c0-24.87-1.85-46.04-5.55-63.52c-3.7-17.47-9.41-31.76-17.14-42.85c-7.73-11.09-17.9-19.16-30.5-24.2     c-12.6-5.04-27.65-7.56-45.12-7.56c-4.71,0-9.41,0.17-14.12,0.5c-4.71,0.34-9.58,0.84-14.62,1.51v272.23     c5.04,0.68,9.91,1.18,14.62,1.51c4.7,0.34,9.24,0.5,13.61,0.5c17.81,0,32.93-2.52,45.37-7.56c12.43-5.04,22.6-13.02,30.5-23.95     c7.89-10.92,13.69-25.12,17.39-42.6C2149.75,795.42,2151.6,774.08,2151.6,748.87z"></path>			</g>		</g>		<g>			<g>				<path class="st4" d="M397.67,901.17c0.88-0.98,1.76-1.94,2.64-2.92l-2.54,0.24C397.73,899.39,397.71,900.27,397.67,901.17z"></path>				<path class="st3" d="M362.93,759.16c32.92,52,36.68,93.05,34.84,139.33l2.54-0.24c3.02-3.36,6.05-6.72,9.08-10.04     c3.91-4.29,7.82-8.56,11.74-12.79c6.03,5.85,11.17,12.03,15.42,17.79l44.13-65.43c10.08-18.89,3.96-34.17-0.43-41.42     c4.96-5,10.48-10.8,15.86-16.46c4.18-4.39,8.26-8.68,12.21-12.75c-8.13-1.99-16.32-3.69-24.5-5.14     c-22.87-4-40.52-5.11-59.09-5.11c-28.06,0-62.35,9.35-68.59,12.47c0.75,0.99,1.51,2.19,2.27,3.53c-0.17-0.6-0.31-1.21-0.5-1.82     C359.55,760.41,361.22,759.77,362.93,759.16z"></path>				<path class="st5" d="M595.99,777.38l-5.39-2.21l-5.47-2.01l-10.92-4.01l-11.04-3.6l-5.51-1.79l-5.57-1.58     c-5.45-1.63-10.95-3.07-16.46-4.41c-4.58,4.71-9.31,9.68-14.14,14.77c-6.23,6.56-12.62,13.28-18.36,19.06     c5.08,8.4,12.18,26.09,0.5,47.97l-52.4,77.69c0,0-5.02-10.94-14.67-24.03c-4.25-5.77-9.4-11.94-15.42-17.79     c-3.91,4.23-7.83,8.5-11.74,12.79c-3.03,3.33-6.05,6.68-9.08,10.04c-0.88,0.98-1.76,1.94-2.64,2.92c0.04-0.9,0.06-1.78,0.1-2.67     c1.84-46.28-1.92-87.33-34.84-139.33c-1.71,0.61-3.38,1.25-5.02,1.91c0.18,0.6,0.32,1.21,0.5,1.82     c2.07,7.11,3.83,14.26,5.29,21.44c3.02,15.63,4.8,31.34,5.08,46.97c0.59,31.25-2.76,68.09-11.34,97.1     c-8.33,28.55-30.19,77.2-30.19,77.2l44.78,20.8c17.02-20.37,35.47-41.9,54.83-64l73.87,22.48c0.07-0.33,0.14-0.68,0.21-1.02     c14.06-65.91,50.13-138.12,101.7-203.69C600.44,779.23,598.22,778.28,595.99,777.38z"></path>			</g>			<g>				<path class="st4" d="M176.09,820.41c0.98,0.88,1.94,1.76,2.92,2.64l-0.24-2.54C177.87,820.47,176.99,820.45,176.09,820.41z"></path>				<path class="st3" d="M318.1,785.67c-52,32.92-93.05,36.68-139.33,34.84l0.24,2.54c3.36,3.02,6.72,6.05,10.04,9.08     c4.29,3.91,8.56,7.82,12.79,11.74c-5.85,6.03-12.03,11.17-17.79,15.42l65.43,44.13c18.89,10.08,34.17,3.96,41.42-0.43     c5,4.96,10.8,10.48,16.46,15.86c4.39,4.18,8.68,8.26,12.75,12.21c1.99-8.13,3.69-16.32,5.14-24.5c4-22.87,5.11-40.52,5.11-59.09     c0-28.06-9.35-62.35-12.47-68.59c-0.99,0.75-2.19,1.51-3.53,2.27c0.6-0.17,1.21-0.31,1.82-0.5     C316.85,782.29,317.49,783.96,318.1,785.67z"></path>				<path class="st5" d="M299.88,1018.73l2.21-5.39l2.01-5.47l4.01-10.92l3.6-11.04l1.79-5.51l1.58-5.57     c1.63-5.45,3.07-10.95,4.41-16.46c-4.71-4.58-9.68-9.31-14.77-14.14c-6.56-6.23-13.28-12.62-19.06-18.36     c-8.4,5.08-26.09,12.18-47.97,0.5l-77.69-52.4c0,0,10.94-5.02,24.03-14.67c5.77-4.25,11.94-9.4,17.79-15.42     c-4.23-3.91-8.5-7.83-12.79-11.74c-3.33-3.03-6.68-6.05-10.04-9.08c-0.98-0.88-1.94-1.76-2.92-2.64c0.9,0.04,1.78,0.06,2.67,0.1     c46.28,1.84,87.33-1.92,139.33-34.84c-0.61-1.71-1.25-3.38-1.91-5.02c-0.6,0.18-1.21,0.32-1.82,0.5     c-7.11,2.07-14.26,3.83-21.44,5.29c-15.63,3.02-31.34,4.8-46.97,5.08c-31.25,0.59-68.09-2.76-97.1-11.34     c-28.55-8.33-77.2-30.19-77.2-30.19l-20.8,44.78c20.37,17.02,41.9,35.47,64,54.83l-22.48,73.87c0.33,0.07,0.68,0.14,1.02,0.21     c65.91,14.06,138.12,50.13,203.69,101.7C298.03,1023.18,298.98,1020.96,299.88,1018.73z"></path>			</g>			<g>				<path class="st4" d="M256.85,598.83c-0.88,0.98-1.76,1.94-2.64,2.92l2.54-0.24C256.78,600.61,256.81,599.73,256.85,598.83z"></path>				<path class="st3" d="M291.59,740.84c-32.92-52-36.68-93.05-34.84-139.33l-2.54,0.24c-3.02,3.36-6.05,6.72-9.08,10.04     c-3.91,4.29-7.82,8.56-11.74,12.79c-6.03-5.85-11.17-12.03-15.42-17.79l-44.13,65.43c-10.08,18.89-3.96,34.17,0.43,41.42     c-4.96,5-10.48,10.8-15.86,16.46c-4.18,4.39-8.26,8.68-12.21,12.75c8.13,1.99,16.32,3.69,24.5,5.14     c22.87,4,40.52,5.11,59.09,5.11c28.06,0,62.35-9.35,68.59-12.47c-0.75-0.99-1.51-2.19-2.27-3.53c0.17,0.6,0.31,1.21,0.5,1.82     C294.97,739.59,293.3,740.23,291.59,740.84z"></path>				<path class="st5" d="M58.52,722.62l5.39,2.21l5.47,2.01l10.92,4.01l11.04,3.6l5.51,1.79l5.57,1.58     c5.45,1.63,10.95,3.07,16.46,4.41c4.58-4.71,9.31-9.68,14.14-14.77c6.23-6.56,12.62-13.28,18.36-19.06     c-5.08-8.4-12.18-26.09-0.5-47.97l52.4-77.69c0,0,5.02,10.94,14.67,24.03c4.25,5.77,9.4,11.94,15.42,17.79     c3.91-4.23,7.83-8.5,11.74-12.79c3.03-3.33,6.05-6.68,9.08-10.04c0.88-0.98,1.76-1.94,2.64-2.92c-0.04,0.9-0.06,1.78-0.1,2.67     c-1.84,46.28,1.92,87.33,34.84,139.33c1.71-0.61,3.38-1.25,5.02-1.91c-0.18-0.6-0.32-1.21-0.5-1.82     c-2.07-7.11-3.83-14.26-5.29-21.44c-3.02-15.63-4.8-31.34-5.08-46.97c-0.59-31.25,2.76-68.09,11.34-97.1     c8.33-28.55,30.19-77.2,30.19-77.2l-44.78-20.8c-17.02,20.37-35.47,41.9-54.83,64l-73.87-22.48c-0.07,0.33-0.14,0.68-0.21,1.02     c-14.06,65.91-50.13,138.12-101.7,203.69C54.08,720.77,56.29,721.72,58.52,722.62z"></path>			</g>			<g>				<path class="st4" d="M478.43,679.59c-0.98-0.88-1.94-1.76-2.92-2.64l0.24,2.54C476.65,679.53,477.53,679.55,478.43,679.59z"></path>				<path class="st3" d="M336.42,714.33c52-32.92,93.05-36.68,139.33-34.84l-0.24-2.54c-3.36-3.02-6.72-6.05-10.04-9.08     c-4.29-3.91-8.56-7.82-12.79-11.74c5.85-6.03,12.03-11.17,17.79-15.42l-65.43-44.13c-18.89-10.08-34.17-3.96-41.42,0.43     c-5-4.96-10.8-10.48-16.46-15.86c-4.39-4.18-8.68-8.26-12.75-12.21c-1.99,8.13-3.69,16.32-5.14,24.5     c-4,22.87-5.11,40.52-5.11,59.09c0,28.06,9.35,62.35,12.47,68.59c0.99-0.75,2.19-1.51,3.53-2.27c-0.6,0.17-1.21,0.31-1.82,0.5     C337.67,717.71,337.03,716.04,336.42,714.33z"></path>				<path class="st5" d="M354.63,481.27l-2.21,5.39l-2.01,5.47l-4.01,10.92l-3.6,11.04l-1.79,5.51l-1.58,5.57     c-1.63,5.45-3.07,10.95-4.42,16.46c4.71,4.58,9.68,9.31,14.77,14.14c6.56,6.23,13.28,12.62,19.06,18.36     c8.4-5.08,26.09-12.18,47.97-0.5l77.69,52.4c0,0-10.94,5.02-24.03,14.67c-5.77,4.25-11.94,9.4-17.79,15.42     c4.23,3.91,8.5,7.83,12.79,11.74c3.33,3.03,6.68,6.05,10.04,9.08c0.98,0.88,1.94,1.76,2.92,2.64c-0.9-0.04-1.78-0.06-2.67-0.1     c-46.28-1.84-87.33,1.92-139.33,34.84c0.61,1.71,1.25,3.38,1.91,5.02c0.6-0.18,1.21-0.32,1.82-0.5     c7.11-2.07,14.26-3.83,21.44-5.29c15.63-3.02,31.34-4.8,46.97-5.08c31.25-0.59,68.09,2.76,97.1,11.34     c28.55,8.33,77.2,30.19,77.2,30.19l20.8-44.78c-20.37-17.02-41.9-35.47-64-54.83l22.48-73.87c-0.33-0.07-0.68-0.14-1.02-0.21     c-65.91-14.06-138.12-50.13-203.69-101.7C356.48,476.82,355.54,479.04,354.63,481.27z"></path>			</g>		</g>	</g></g><g id="Capa_3"></g><g id="guias" class="st64"></g><g id="Capa_4"></g></svg>